<svg id="Layer_1" data-name="Layer 1" xmlns="http://www.w3.org/2000/svg" xmlns:xlink="http://www.w3.org/1999/xlink" viewBox="0 0 300 300"><defs><style>.cls-1{font-size:33px;fill:#fff;font-family:Poppins-Medium, Poppins;font-weight:500;}.cls-2{fill:url(#linear-gradient);}.cls-3{fill:url(#linear-gradient-8);}.cls-4{fill:url(#linear-gradient-9);}.cls-5{fill:url(#linear-gradient-10);}.cls-6{fill:url(#linear-gradient-11);}.cls-7{fill:url(#linear-gradient-12);}.cls-8{fill:url(#linear-gradient-13);}.cls-9{fill:url(#linear-gradient-14);}.cls-10{fill:url(#linear-gradient-15);}.cls-11{fill:url(#linear-gradient-16);}</style><linearGradient id="linear-gradient" x1="87.53" y1="213.9" x2="211.61" y2="213.9" gradientUnits="userSpaceOnUse"><stop offset="0" stop-color="#4a5197"/><stop offset="0.49" stop-color="#a95297"/><stop offset="0.83" stop-color="#e75297"/><stop offset="1" stop-color="#ff5297"/></linearGradient><linearGradient id="linear-gradient-8" x1="93.7" y1="116.17" x2="203.51" y2="116.17" xlink:href="#linear-gradient"/><linearGradient id="linear-gradient-9" x1="87.31" y1="119.65" x2="212.87" y2="119.65" xlink:href="#linear-gradient"/><linearGradient id="linear-gradient-10" x1="87.31" y1="129.42" x2="122.05" y2="129.42" xlink:href="#linear-gradient"/><linearGradient id="linear-gradient-11" x1="87.13" y1="134.62" x2="167.4" y2="134.62" xlink:href="#linear-gradient"/><linearGradient id="linear-gradient-12" x1="87.53" y1="131.58" x2="162.05" y2="131.58" xlink:href="#linear-gradient"/><linearGradient id="linear-gradient-13" x1="94.01" y1="262.09" x2="54.61" y2="309" gradientTransform="matrix(1, -0.05, 0.05, 1, 74.89, -150.57)" gradientUnits="userSpaceOnUse"><stop offset="0" stop-color="#fff"/><stop offset="0.32" stop-color="#b3f2fd"/><stop offset="1" stop-color="#04d3f7"/></linearGradient><linearGradient id="linear-gradient-14" x1="99.81" y1="256.25" x2="62.3" y2="299.3" gradientTransform="matrix(1, -0.05, 0.05, 1, 74.89, -150.57)" gradientUnits="userSpaceOnUse"><stop offset="0" stop-color="#fff"/><stop offset="0.35" stop-color="#b3e6ff"/><stop offset="1" stop-color="#1fb4ff"/></linearGradient><linearGradient id="linear-gradient-15" x1="171.46" y1="119.74" x2="156.09" y2="139.91" gradientUnits="userSpaceOnUse"><stop offset="0" stop-color="#64ffdd"/><stop offset="0.4" stop-color="#a6d7d6"/><stop offset="0.81" stop-color="#e3b1cf"/><stop offset="1" stop-color="#fba2cc"/></linearGradient><linearGradient id="linear-gradient-16" x1="183.37" y1="108.53" x2="183.37" y2="98.07" xlink:href="#linear-gradient-15"/></defs><title>maturus</title><text class="cls-1" transform="translate(86.18 225.99)">dora.co</text><path class="cls-2" d="M100,208.8a6.36,6.36,0,0,1,2.44,3.24V201.57h3.8V226h-3.8v-4.22A6.33,6.33,0,0,1,100,225a7.13,7.13,0,0,1-4.22,1.23,8,8,0,0,1-4.24-1.13,7.53,7.53,0,0,1-2.92-3.23,10.94,10.94,0,0,1-1.06-5,10.81,10.81,0,0,1,1.06-4.95,7.61,7.61,0,0,1,2.92-3.24,8,8,0,0,1,4.24-1.12A7.2,7.2,0,0,1,100,208.8Zm-7.08,3.68a7.22,7.22,0,0,0,0,8.81,5.23,5.23,0,0,0,4,1.6,5.52,5.52,0,0,0,2.84-.74,5.21,5.21,0,0,0,2-2.1,6.61,6.61,0,0,0,.73-3.16,6.73,6.73,0,0,0-.73-3.16,5.24,5.24,0,0,0-2-2.11,5.52,5.52,0,0,0-2.84-.74A5.23,5.23,0,0,0,92.89,212.48Z"/><path class="cls-2" d="M123.8,208.7a8.1,8.1,0,0,1,3.3,3.24,9.91,9.91,0,0,1,1.19,4.95,10,10,0,0,1-1.19,5,8,8,0,0,1-3.3,3.23,10,10,0,0,1-4.76,1.13,9.87,9.87,0,0,1-4.73-1.13,8.07,8.07,0,0,1-3.3-3.25,9.93,9.93,0,0,1-1.21-5,9.81,9.81,0,0,1,1.21-4.95,8.17,8.17,0,0,1,3.3-3.24,9.86,9.86,0,0,1,4.73-1.12A10,10,0,0,1,123.8,208.7Zm-7.43,2.81a4.81,4.81,0,0,0-2,2,8,8,0,0,0,0,6.71,4.9,4.9,0,0,0,2,2,5.83,5.83,0,0,0,5.35,0,4.9,4.9,0,0,0,2-2,8,8,0,0,0,0-6.71,4.81,4.81,0,0,0-2-2,5.75,5.75,0,0,0-5.35,0Z"/><path class="cls-2" d="M138.32,208.55a7.5,7.5,0,0,1,4-1v4.1h-1.13a6.16,6.16,0,0,0-4,1.2,4.81,4.81,0,0,0-1.5,4V226h-3.76V207.81h3.76v3.57A7,7,0,0,1,138.32,208.55Z"/><path class="cls-2" d="M156.6,208.8a6.58,6.58,0,0,1,2.47,3.24v-4.23h3.77V226h-3.77v-4.22A6.55,6.55,0,0,1,156.6,225a7.17,7.17,0,0,1-4.22,1.23,8.09,8.09,0,0,1-4.25-1.13,7.66,7.66,0,0,1-2.92-3.23,11.08,11.08,0,0,1-1.05-5,10.94,10.94,0,0,1,1.05-4.95,7.74,7.74,0,0,1,2.92-3.24,8.08,8.08,0,0,1,4.25-1.12A7.24,7.24,0,0,1,156.6,208.8Zm-7.08,3.68a7.22,7.22,0,0,0,0,8.81,5.23,5.23,0,0,0,4,1.6,5.52,5.52,0,0,0,2.84-.74,5.35,5.35,0,0,0,2-2.1,6.61,6.61,0,0,0,.72-3.16,6.72,6.72,0,0,0-.72-3.16,5.38,5.38,0,0,0-2-2.11,5.52,5.52,0,0,0-2.84-.74A5.23,5.23,0,0,0,149.52,212.48Z"/><path class="cls-2" d="M170.33,221.84V226h-4.26v-4.15Z"/><path class="cls-2" d="M187.55,209.44a8.06,8.06,0,0,1,2.87,5.07h-4a4.27,4.27,0,0,0-1.6-2.69,5.09,5.09,0,0,0-3.19-1,4.8,4.8,0,0,0-3.63,1.53,7.75,7.75,0,0,0,0,9,4.79,4.79,0,0,0,3.63,1.55,5,5,0,0,0,3.19-1,4.32,4.32,0,0,0,1.6-2.71h4a8.06,8.06,0,0,1-2.87,5.08,8.93,8.93,0,0,1-5.84,1.89A9.47,9.47,0,0,1,177,225.1a7.92,7.92,0,0,1-3.18-3.23,10.24,10.24,0,0,1-1.16-5,10.12,10.12,0,0,1,1.16-4.95A8,8,0,0,1,177,208.7a9.46,9.46,0,0,1,4.67-1.12A9,9,0,0,1,187.55,209.44Z"/><path class="cls-2" d="M207.12,208.7a8,8,0,0,1,3.3,3.24,9.91,9.91,0,0,1,1.19,4.95,10,10,0,0,1-1.19,5,8,8,0,0,1-3.3,3.23,10.53,10.53,0,0,1-9.49,0,8.19,8.19,0,0,1-3.3-3.25,9.93,9.93,0,0,1-1.2-5,9.81,9.81,0,0,1,1.2-4.95,8.29,8.29,0,0,1,3.3-3.24,10.61,10.61,0,0,1,9.49,0Zm-7.42,2.81a4.83,4.83,0,0,0-2,2,8,8,0,0,0,0,6.71,4.92,4.92,0,0,0,2,2,5.81,5.81,0,0,0,5.34,0,4.84,4.84,0,0,0,2-2,7.88,7.88,0,0,0,0-6.71,4.75,4.75,0,0,0-2-2,5.73,5.73,0,0,0-5.34,0Z"/><path class="cls-3" d="M163.62,165.05a3.61,3.61,0,1,1-2.9-4.21A3.61,3.61,0,0,1,163.62,165.05ZM148.92,64.34c-30.3-.16-53.76,23.74-55.14,53.3-.34,7.24.35,13.71,3.12,19.65.89,1.05,1.74,1.82,2.41,2.57,7.73,8.81,19.12,8.36,22.74,7.45-14.65-.45-22.27-11.49-21.85-27.07.66-25.09,21.24-45.38,46.34-45.15a45.72,45.72,0,0,1,30,11.5,4,4,0,0,1-1.6,6.93c-4.33,1.14-9.79,1-11,.57-4.1-1.23-5.18,2.72-2.33,3.81a12,12,0,0,0,4.81.69,1.12,1.12,0,0,1,.41,2.18,52,52,0,0,1-10.13,2c-5.38.6-4.77,5,0,4.81,11.78-.33,21.77-11.92,25.83-14.57a46.41,46.41,0,0,1,8.35,17.62c-.72.85-7.07,9.83-6.71,15.67.22,3.61,4.34,3.8,4.06-1.24a12.56,12.56,0,0,1,.89-5.87,1.54,1.54,0,0,1,2.94.6c0,.51,0,1,0,1.53-.08,15.61-8.15,26.63-20.19,33.9a5.27,5.27,0,0,0-2.47,5.36l0,.11a5.31,5.31,0,0,0,8.19,3.53c15.13-10,25.79-27.15,25.88-46C203.66,88.62,179.22,64.5,148.92,64.34Z"/><path class="cls-4" d="M162.18,182a5.09,5.09,0,0,1-6.22-5.49v-.1a5.09,5.09,0,0,1,3.89-4.43c23.87-5.75,43.51-28.2,43.64-53.77.16-29.6-24.28-53.72-54.58-53.88s-53.6,23.74-55.14,53.3c-1.13,21.44,11.43,27.56,17,32-6.39-1.41-18.65-1-23.43-30.27,0-.84,0-1.69,0-2.54a62.78,62.78,0,0,1,125.56.66C212.71,147.69,189.85,175.41,162.18,182Zm-14.06-7.56a5.3,5.3,0,1,0,4.24,6.18A5.3,5.3,0,0,0,148.12,174.45Z"/><path class="cls-5" d="M122.05,147.31c-6.66-.21-11.86-2.61-15.52-6.62h0c-13.17-6.37-18.77-20.53-18.72-31.44a62.38,62.38,0,0,0-.49,7.53c0,.85,0,1.7,0,2.54,4.78,29.28,17,28.86,23.43,30.27C114,148.1,118.77,148.14,122.05,147.31Z"/><path class="cls-6" d="M155.33,127.05c-9.87,12.89-23,22.55-40.07,19.8C98.55,144.17,88,127.92,87.8,109.23c-4.66,32.56,15.74,49.39,36.73,50.69,18.4,1.15,33.84-9.45,42.87-22.32C164.46,132.36,158.19,128.83,155.33,127.05Z"/><path class="cls-7" d="M162.05,131.59a57.27,57.27,0,0,0-6.72-4.54c-9.87,12.89-23,22.55-40.07,19.8C98.55,144.17,88,127.92,87.8,109.23c0,0,0,.06,0,.1-2.7,29.75,15.82,43.56,34.26,44.55C138.84,154.78,153.73,145.2,162.05,131.59Z"/><path class="cls-8" d="M169,138.6a31.82,31.82,0,0,1-15-11.45,3.47,3.47,0,0,1,.13-4.26c4.72-5.74,18.12-21.93,22.26-25.6,5.05-4.49,15.63-9.75,18-8s.36,13.22-2.63,19.61c-1.9,4.07-14.37,22.21-18.71,28.39A3.47,3.47,0,0,1,169,138.6Z"/><path class="cls-9" d="M194.38,89.34h0s0,0,0,0a.78.78,0,0,0-.18-.11h0c-2.65-1.43-12.86,3.69-17.79,8.08-4.14,3.67-17.54,19.86-22.26,25.6a3.47,3.47,0,0,0-.13,4.26,35.67,35.67,0,0,0,4.25,4.81h0c.37.35.74.68,1.12,1l.25.21c.33.28.66.54,1,.8l.19.15q.58.45,1.2.87l.18.12,1,.67.32.19c.36.22.72.43,1.09.63l.15.09c.41.22.84.44,1.26.64l.32.15,1,.45.37.15c.43.18.86.35,1.3.51l.12,0h0a3.48,3.48,0,0,0,3.89-1.31c4.34-6.18,16.81-24.32,18.71-28.39C194.71,102.56,196.69,91.17,194.38,89.34Zm-4.52,18.78c-2.17,3.93-15.74,21.26-20.6,27-1.8,2.14-4.66.91-8.24-2-2.26-1.83-5.6-5.32-3.61-8,4.47-5.94,17-22.83,20.91-26.71,4.08-4,12.1-8.8,15.93-9.15C195.6,92.4,193,102.43,189.86,108.12Z"/><path class="cls-10" d="M156.77,119.69l-8.36,7.93a.8.8,0,0,1-1.37-.75l1.78-6a3.06,3.06,0,0,1,.8-1.32l6.47-6.22a1.77,1.77,0,0,1,2.3-.13l2.34,1.78Zm18.65,14.16L170,144a.8.8,0,0,0,1.08,1.12l5.34-3.34a3,3,0,0,0,1-1.12l4.25-7.91a1.76,1.76,0,0,0-.49-2.25l-2.33-1.77Zm-16,3,4-3.76,6.49-8.54a1,1,0,0,0-.2-1.41l-1.06-.81a1,1,0,0,0-1.41.2l-6.52,8.59-2.52,4.78A.8.8,0,0,0,159.46,136.81Z"/><path class="cls-11" d="M178.14,103.55a5.24,5.24,0,1,0,5-5.48A5.25,5.25,0,0,0,178.14,103.55Zm9.15-.44a3.92,3.92,0,1,1-4.11-3.73A3.92,3.92,0,0,1,187.29,103.11Z"/></svg>