<svg id="Layer_1" data-name="Layer 1" xmlns="http://www.w3.org/2000/svg" xmlns:xlink="http://www.w3.org/1999/xlink" viewBox="0 0 223 64"><defs><style>.cls-1{font-size:48.88px;fill:#fff;font-family:Poppins-Medium, Poppins;font-weight:500;}.cls-2{fill:url(#linear-gradient);}</style><linearGradient id="linear-gradient" x1="17.68" y1="28.98" x2="201.48" y2="28.98" gradientUnits="userSpaceOnUse"><stop offset="0" stop-color="#4a5197"/><stop offset="0.49" stop-color="#a95297"/><stop offset="0.83" stop-color="#e75297"/><stop offset="1" stop-color="#ff5297"/></linearGradient></defs><title>maturus</title><text class="cls-1" transform="translate(15.68 46.9)">dora.co</text><path class="cls-2" d="M36.11,21.43a9.49,9.49,0,0,1,3.62,4.79V10.72h5.62V46.9H39.73V40.64a9.45,9.45,0,0,1-3.62,4.79,10.63,10.63,0,0,1-6.26,1.81,11.93,11.93,0,0,1-6.28-1.66,11.38,11.38,0,0,1-4.32-4.79,16.25,16.25,0,0,1-1.57-7.38,16.14,16.14,0,0,1,1.57-7.34,11.38,11.38,0,0,1,4.32-4.79,12,12,0,0,1,6.28-1.66A10.7,10.7,0,0,1,36.11,21.43ZM25.62,26.88a9.18,9.18,0,0,0-2.22,6.53,9.15,9.15,0,0,0,2.22,6.52,7.78,7.78,0,0,0,5.94,2.37,8,8,0,0,0,4.21-1.1,7.76,7.76,0,0,0,2.93-3.1,9.75,9.75,0,0,0,1.08-4.69,9.78,9.78,0,0,0-1.08-4.67,7.78,7.78,0,0,0-2.93-3.13,8.14,8.14,0,0,0-4.21-1.1A7.78,7.78,0,0,0,25.62,26.88Z"/><path class="cls-2" d="M71.4,21.28a11.93,11.93,0,0,1,4.89,4.79,14.76,14.76,0,0,1,1.76,7.34,14.87,14.87,0,0,1-1.76,7.38,11.93,11.93,0,0,1-4.89,4.79,15.69,15.69,0,0,1-14.05,0,12.06,12.06,0,0,1-4.89-4.82,14.65,14.65,0,0,1-1.78-7.35,14.56,14.56,0,0,1,1.78-7.34,12.18,12.18,0,0,1,4.89-4.79,15.69,15.69,0,0,1,14.05,0Zm-11,4.16a7.16,7.16,0,0,0-2.9,3,10.19,10.19,0,0,0-1.1,5,10.16,10.16,0,0,0,1.1,5,7.28,7.28,0,0,0,2.9,3,8.57,8.57,0,0,0,7.92,0,7.24,7.24,0,0,0,2.91-3,10.16,10.16,0,0,0,1.1-5,10.19,10.19,0,0,0-1.1-5,7.12,7.12,0,0,0-2.91-3,8.49,8.49,0,0,0-7.92,0Z"/><path class="cls-2" d="M92.91,21.06a11.18,11.18,0,0,1,5.87-1.54v6.07H97.12a9.11,9.11,0,0,0-5.89,1.78Q89,29.15,89,33.26V46.9H83.43V20H89v5.28A10.42,10.42,0,0,1,92.91,21.06Z"/><path class="cls-2" d="M120,21.43a9.75,9.75,0,0,1,3.67,4.79V20h5.57V46.9h-5.57V40.64A9.71,9.71,0,0,1,120,45.43a10.62,10.62,0,0,1-6.25,1.81,11.94,11.94,0,0,1-6.29-1.66,11.38,11.38,0,0,1-4.32-4.79,16.25,16.25,0,0,1-1.57-7.38,16.14,16.14,0,0,1,1.57-7.34,11.38,11.38,0,0,1,4.32-4.79,12,12,0,0,1,6.29-1.66A10.69,10.69,0,0,1,120,21.43Zm-10.48,5.45a9.14,9.14,0,0,0-2.23,6.53,9.11,9.11,0,0,0,2.23,6.52,7.75,7.75,0,0,0,5.94,2.37,8,8,0,0,0,4.2-1.1,7.69,7.69,0,0,0,2.93-3.1,9.75,9.75,0,0,0,1.08-4.69,9.78,9.78,0,0,0-1.08-4.67,7.71,7.71,0,0,0-2.93-3.13,8.13,8.13,0,0,0-4.2-1.1A7.75,7.75,0,0,0,109.51,26.88Z"/><path class="cls-2" d="M140.33,40.74V46.9H134V40.74Z"/><path class="cls-2" d="M165.84,22.38a12,12,0,0,1,4.26,7.51h-5.92a6.34,6.34,0,0,0-2.37-4,7.54,7.54,0,0,0-4.72-1.44,7.09,7.09,0,0,0-5.37,2.27c-1.44,1.52-2.15,3.74-2.15,6.68s.71,5.16,2.15,6.69a7,7,0,0,0,5.37,2.3,7.43,7.43,0,0,0,4.72-1.47,6.39,6.39,0,0,0,2.37-4h5.92a12,12,0,0,1-4.26,7.52,13.23,13.23,0,0,1-8.65,2.79,14.06,14.06,0,0,1-6.92-1.66,11.87,11.87,0,0,1-4.71-4.79,15.18,15.18,0,0,1-1.71-7.38,15.08,15.08,0,0,1,1.71-7.34,11.87,11.87,0,0,1,4.71-4.79,14.17,14.17,0,0,1,6.92-1.66A13.33,13.33,0,0,1,165.84,22.38Z"/><path class="cls-2" d="M194.83,21.28a12,12,0,0,1,4.89,4.79,14.76,14.76,0,0,1,1.76,7.34,14.87,14.87,0,0,1-1.76,7.38,12,12,0,0,1-4.89,4.79,14.75,14.75,0,0,1-7,1.66,14.58,14.58,0,0,1-7-1.66,12.06,12.06,0,0,1-4.89-4.82,14.66,14.66,0,0,1-1.79-7.35,14.57,14.57,0,0,1,1.79-7.34,12.18,12.18,0,0,1,4.89-4.79,14.69,14.69,0,0,1,7-1.66A14.87,14.87,0,0,1,194.83,21.28Zm-11,4.16a7.18,7.18,0,0,0-2.91,3,10.3,10.3,0,0,0-1.1,5,10.28,10.28,0,0,0,1.1,5,7.3,7.3,0,0,0,2.91,3,8.57,8.57,0,0,0,7.92,0,7.24,7.24,0,0,0,2.91-3,10.28,10.28,0,0,0,1.1-5,10.3,10.3,0,0,0-1.1-5,7.12,7.12,0,0,0-2.91-3,8.49,8.49,0,0,0-7.92,0Z"/></svg>