<svg id="Layer_1" data-name="Layer 1" xmlns="http://www.w3.org/2000/svg" xmlns:xlink="http://www.w3.org/1999/xlink" viewBox="0 0 151.85 151.85"><defs><style>.cls-1{fill:url(#linear-gradient);}.cls-2{fill:url(#linear-gradient-2);}.cls-3{fill:url(#linear-gradient-3);}.cls-4{fill:url(#linear-gradient-4);}.cls-5{fill:url(#linear-gradient-5);}.cls-6{fill:url(#linear-gradient-6);}.cls-7{fill:url(#linear-gradient-7);}.cls-8{fill:url(#linear-gradient-8);}.cls-9{fill:url(#linear-gradient-9);}</style><linearGradient id="linear-gradient" x1="21.62" y1="76.1" x2="131.43" y2="76.1" gradientUnits="userSpaceOnUse"><stop offset="0" stop-color="#4a5197"/><stop offset="0.49" stop-color="#a95297"/><stop offset="0.83" stop-color="#e75297"/><stop offset="1" stop-color="#ff5297"/></linearGradient><linearGradient id="linear-gradient-2" x1="15.23" y1="79.57" x2="140.79" y2="79.57" xlink:href="#linear-gradient"/><linearGradient id="linear-gradient-3" x1="15.23" y1="89.35" x2="49.97" y2="89.35" xlink:href="#linear-gradient"/><linearGradient id="linear-gradient-4" x1="15.05" y1="94.54" x2="95.33" y2="94.54" xlink:href="#linear-gradient"/><linearGradient id="linear-gradient-5" x1="15.45" y1="91.51" x2="89.98" y2="91.51" xlink:href="#linear-gradient"/><linearGradient id="linear-gradient-6" x1="19.92" y1="238.28" x2="-19.48" y2="285.19" gradientTransform="matrix(1, -0.05, 0.05, 1, 77.96, -170.43)" gradientUnits="userSpaceOnUse"><stop offset="0" stop-color="#fff"/><stop offset="0.32" stop-color="#b3f2fd"/><stop offset="1" stop-color="#04d3f7"/></linearGradient><linearGradient id="linear-gradient-7" x1="25.72" y1="232.45" x2="-11.79" y2="275.49" gradientTransform="matrix(1, -0.05, 0.05, 1, 77.96, -170.43)" gradientUnits="userSpaceOnUse"><stop offset="0" stop-color="#fff"/><stop offset="0.35" stop-color="#b3e6ff"/><stop offset="1" stop-color="#1fb4ff"/></linearGradient><linearGradient id="linear-gradient-8" x1="99.38" y1="79.67" x2="84.02" y2="99.84" gradientUnits="userSpaceOnUse"><stop offset="0" stop-color="#64ffdd"/><stop offset="0.4" stop-color="#a6d7d6"/><stop offset="0.81" stop-color="#e3b1cf"/><stop offset="1" stop-color="#fba2cc"/></linearGradient><linearGradient id="linear-gradient-9" x1="111.29" y1="68.46" x2="111.29" y2="57.99" xlink:href="#linear-gradient-8"/></defs><title>maturus</title><path class="cls-1" d="M91.54,125a3.61,3.61,0,1,1-2.89-4.2A3.62,3.62,0,0,1,91.54,125ZM76.85,24.27C46.55,24.11,23.09,48,21.7,77.56c-.34,7.25.35,13.71,3.12,19.65.89,1.05,1.75,1.82,2.41,2.58,7.74,8.8,19.12,8.36,22.74,7.44-14.65-.45-22.26-11.48-21.85-27.07C28.79,55.08,49.37,34.79,74.46,35a45.75,45.75,0,0,1,30,11.5,4.05,4.05,0,0,1-1.61,6.93,28.84,28.84,0,0,1-11,.58c-4.1-1.24-5.19,2.71-2.34,3.8a11.9,11.9,0,0,0,4.82.7,1.12,1.12,0,0,1,.4,2.18,53.38,53.38,0,0,1-10.12,2c-5.38.59-4.77,4.94,0,4.81,11.78-.33,21.76-11.92,25.83-14.57a46.41,46.41,0,0,1,8.35,17.62c-.72.84-7.08,9.83-6.72,15.66.22,3.61,4.35,3.8,4.07-1.23a12.59,12.59,0,0,1,.88-5.88,1.55,1.55,0,0,1,3,.61c0,.5,0,1,0,1.52-.08,15.61-8.14,26.63-20.18,33.9a5.26,5.26,0,0,0-2.48,5.36l0,.12a5.3,5.3,0,0,0,8.19,3.52c15.13-10,25.79-27.15,25.89-46C131.58,48.55,107.15,24.42,76.85,24.27Z"/><path class="cls-2" d="M90.1,141.93a5.09,5.09,0,0,1-6.22-5.48v-.11a5.11,5.11,0,0,1,3.89-4.43c23.87-5.75,43.51-28.2,43.65-53.77.15-29.59-24.28-53.72-54.58-53.87S23.25,48,21.7,77.56c-1.12,21.44,11.44,27.57,17,32-6.38-1.41-18.65-1-23.42-30.27,0-.85,0-1.7,0-2.55a62.78,62.78,0,1,1,125.56.66C140.63,107.61,117.77,135.33,90.1,141.93ZM76,134.38a5.3,5.3,0,1,0,4.24,6.17A5.3,5.3,0,0,0,76,134.38Z"/><path class="cls-3" d="M50,107.23c-6.66-.2-11.86-2.6-15.52-6.62h0C21.27,94.24,15.67,80.08,15.72,69.18a66.41,66.41,0,0,0-.49,7.52c0,.85,0,1.7,0,2.55,4.77,29.27,17,28.86,23.42,30.27C41.9,108,46.69,108.06,50,107.23Z"/><path class="cls-4" d="M83.26,87c-9.88,12.89-23,22.55-40.08,19.81-16.7-2.69-27.31-18.94-27.46-37.63-4.66,32.56,15.75,49.39,36.73,50.7,18.41,1.14,33.84-9.46,42.88-22.32C92.38,92.28,86.12,88.75,83.26,87Z"/><path class="cls-5" d="M90,91.52A59.31,59.31,0,0,0,83.26,87c-9.88,12.89-23,22.55-40.08,19.81-16.7-2.69-27.31-18.94-27.46-37.63a.34.34,0,0,1,0,.1C13,99,31.54,112.82,50,113.8,66.76,114.7,81.66,105.13,90,91.52Z"/><path class="cls-6" d="M96.94,98.52a31.77,31.77,0,0,1-15-11.45,3.48,3.48,0,0,1,.12-4.26c4.72-5.74,18.13-21.92,22.26-25.6,5-4.49,15.63-9.75,18-8s.35,13.23-2.63,19.62c-1.9,4.06-14.37,22.2-18.72,28.38A3.45,3.45,0,0,1,96.94,98.52Z"/><path class="cls-7" d="M122.31,49.26h0l0,0-.18-.11h0c-2.65-1.43-12.87,3.69-17.8,8.08-4.13,3.68-17.54,19.86-22.26,25.6a3.48,3.48,0,0,0-.12,4.26,37.07,37.07,0,0,0,4.24,4.82h0c.37.34.74.68,1.12,1l.25.21c.33.28.66.55,1,.8l.19.15q.6.45,1.2.87l.18.12c.34.23.69.46,1,.67l.31.2,1.09.63.15.08c.42.23.84.44,1.26.65l.32.14c.33.16.66.31,1,.45l.36.16,1.31.5.11,0h0a3.44,3.44,0,0,0,3.89-1.31c4.35-6.18,16.82-24.32,18.72-28.38C122.63,62.49,124.62,51.09,122.31,49.26ZM117.78,68C115.61,72,102,89.3,97.18,95.09c-1.79,2.14-4.65.91-8.23-2-2.27-1.83-5.61-5.32-3.62-8,4.47-5.94,17-22.83,20.91-26.72s12.11-8.8,15.93-9.14C123.52,52.33,120.93,62.36,117.78,68Z"/><path class="cls-8" d="M84.69,79.61l-8.36,7.93A.79.79,0,0,1,75,86.8l1.77-6a3.09,3.09,0,0,1,.8-1.32L84,73.22a1.76,1.76,0,0,1,2.29-.14l2.34,1.78Zm18.66,14.16L98,104A.79.79,0,0,0,99,105.07l5.34-3.33a3.11,3.11,0,0,0,1.06-1.13l4.25-7.9a1.78,1.78,0,0,0-.49-2.25l-2.34-1.78Zm-16,3,4-3.75,6.48-8.54A1,1,0,0,0,97.65,83l-1.07-.81a1,1,0,0,0-1.41.19L88.65,91l-2.52,4.79A.79.79,0,0,0,87.38,96.73Z"/><path class="cls-9" d="M106.07,63.47A5.23,5.23,0,1,0,111,58,5.23,5.23,0,0,0,106.07,63.47Zm9.14-.44a3.92,3.92,0,1,1-4.1-3.73A3.91,3.91,0,0,1,115.21,63Z"/></svg>